<?xml version="1.0" encoding="UTF-8" standalone="no"?>
<!-- Created with Inkscape (http://www.inkscape.org/) -->

<svg
   width="116.35007mm"
   height="135.41528mm"
   viewBox="0 0 116.35007 135.41528"
   version="1.1"
   id="svg1"
   xml:space="preserve"
   sodipodi:docname="threads.svg"
   inkscape:version="1.4 (e7c3feb1, 2024-10-09)"
   xmlns:inkscape="http://www.inkscape.org/namespaces/inkscape"
   xmlns:sodipodi="http://sodipodi.sourceforge.net/DTD/sodipodi-0.dtd"
   xmlns="http://www.w3.org/2000/svg"
   xmlns:svg="http://www.w3.org/2000/svg"><sodipodi:namedview
     id="namedview1"
     pagecolor="#ffffff"
     bordercolor="#000000"
     borderopacity="0.25"
     inkscape:showpageshadow="2"
     inkscape:pageopacity="0.0"
     inkscape:pagecheckerboard="0"
     inkscape:deskcolor="#d1d1d1"
     inkscape:document-units="mm"
     inkscape:zoom="1.0824418"
     inkscape:cx="220.33517"
     inkscape:cy="255.9029"
     inkscape:window-width="1440"
     inkscape:window-height="773"
     inkscape:window-x="0"
     inkscape:window-y="25"
     inkscape:window-maximized="0"
     inkscape:current-layer="layer1"><inkscape:page
       x="0"
       y="0"
       width="116.35007"
       height="135.41528"
       id="page2"
       margin="0"
       bleed="0" /></sodipodi:namedview><defs
     id="defs1" /><g
     inkscape:label="Layer 1"
     inkscape:groupmode="layer"
     id="layer1"
     transform="translate(-142.62418,-306.86466)"><g
       id="g1"
       transform="translate(148.33894,3.955705)"
       style="fill:#cbd5e1;fill-opacity:1"><path
         style="fill:#cbd5e1;fill-opacity:1"
         d="m 59.256526,438.1626 c 0.190996,-0.0764 0.419199,-0.067 0.507118,0.0209 0.08792,0.0879 -0.06835,0.15045 -0.347266,0.13896 -0.308224,-0.0127 -0.370919,-0.0754 -0.159852,-0.15985 z M 53.2919,426.25373 c 0.257431,-0.0671 0.614619,-0.0627 0.79375,0.01 0.179132,0.0725 -0.03149,0.12736 -0.468056,0.12197 -0.436562,-0.005 -0.583125,-0.0647 -0.325694,-0.13178 z M 12.210305,423.1298 c -0.642681,-0.65485 -1.108979,-1.19063 -1.036219,-1.19063 0.07276,0 0.658121,0.53578 1.300802,1.19063 0.64268,0.65484 1.108979,1.19062 1.036218,1.19062 -0.07276,0 -0.658121,-0.53578 -1.300801,-1.19062 z m 29.765623,-45.90521 c 0.263389,-0.29104 0.53842,-0.52917 0.611181,-0.52917 0.07276,0 -0.08321,0.23813 -0.346598,0.52917 -0.263389,0.29104 -0.53842,0.52917 -0.611181,0.52917 -0.07276,0 0.08321,-0.23813 0.346598,-0.52917 z m 29.257345,-3.32934 c 0.0127,-0.30822 0.07539,-0.37092 0.159852,-0.15985 0.07643,0.19099 0.06703,0.4192 -0.02089,0.50712 -0.08792,0.0879 -0.150453,-0.0684 -0.138964,-0.34727 z M 6.1862723,373.25584 c 0,-0.50932 0.05445,-0.71768 0.1209999,-0.46302 0.06655,0.25466 0.06655,0.67138 0,0.92604 -0.06655,0.25466 -0.1209999,0.0463 -0.1209999,-0.46302 z m -11.9009099,-0.66146 c 0.00294,-0.58208 0.057119,-0.78905 0.1204059,-0.45993 0.063287,0.32912 0.060884,0.80537 -0.00534,1.05833 -0.066223,0.25297 -0.1180032,-0.0163 -0.1150659,-0.5984 z m 69.2044966,-0.0485 c 0.190996,-0.0764 0.419199,-0.067 0.507118,0.0209 0.08792,0.0879 -0.06835,0.15046 -0.347265,0.13897 -0.308225,-0.0127 -0.37092,-0.0754 -0.159853,-0.15986 z m -69.2044966,-3.9203 c 0.00294,-0.58208 0.057119,-0.78905 0.1204059,-0.45993 0.063287,0.32912 0.060884,0.80537 -0.00534,1.05833 -0.066223,0.25297 -0.1180032,-0.0163 -0.1150659,-0.5984 z m 11.9009099,-0.66145 c 0,-0.50933 0.05445,-0.71769 0.1209999,-0.46303 0.06655,0.25467 0.06655,0.67138 0,0.92605 -0.06655,0.25466 -0.1209999,0.0463 -0.1209999,-0.46302 z m 48.5558007,-7.58357 c 0.181901,-0.0734 0.479557,-0.0734 0.661458,0 0.181901,0.0734 0.03307,0.13346 -0.330729,0.13346 -0.363802,0 -0.51263,-0.0601 -0.330729,-0.13346 z m 2.133203,-25.93467 c 0.190996,-0.0764 0.419199,-0.067 0.507118,0.0209 0.08792,0.0879 -0.06835,0.15046 -0.347265,0.13897 -0.308225,-0.0127 -0.37092,-0.0754 -0.159853,-0.15985 z m 30.861117,-7.02916 -1.045884,-1.12448 1.124479,1.04589 c 0.618464,0.57523 1.124479,1.08125 1.124479,1.12448 0,0.20017 -0.230412,-1.3e-4 -1.203074,-1.04589 z m 9.371408,-7.54062 c -0.329107,-0.41965 -0.319749,-0.42901 0.0999,-0.0999 0.440729,0.34565 0.580887,0.56292 0.363126,0.56292 -0.05494,0 -0.263302,-0.20836 -0.463021,-0.46302 z m -84.908554,-1.71979 c 0.648762,-0.69123 1.214309,-1.25678 1.256771,-1.25678 0.198672,0 -0.01138,0.23755 -1.179568,1.33398 l -1.25677,1.17957 z m 82.13904,-1.05834 -0.504028,-0.59531 0.595312,0.50403 c 0.327422,0.27721 0.595313,0.5451 0.595313,0.59531 0,0.21173 -0.212936,0.0554 -0.686597,-0.50403 z M 47.879443,315.1313 c 0.190996,-0.0764 0.4192,-0.067 0.507118,0.0209 0.08792,0.0879 -0.06835,0.15045 -0.347265,0.13897 -0.308225,-0.0127 -0.370919,-0.0754 -0.159853,-0.15986 z m 5.412457,-0.26719 c 0.257431,-0.0671 0.614619,-0.0627 0.79375,0.01 0.179132,0.0725 -0.03149,0.12736 -0.468056,0.12197 -0.436562,-0.005 -0.583125,-0.0647 -0.325694,-0.13177 z"
         id="path7" /><path
         style="fill:#cbd5e1;fill-opacity:1"
         d="m 52.09624,426.26186 c 0.181901,-0.0734 0.479557,-0.0734 0.661458,0 0.181901,0.0734 0.03307,0.13345 -0.330729,0.13345 -0.363802,0 -0.51263,-0.06 -0.330729,-0.13345 z m 2.513541,-0.007 c 0.254662,-0.0666 0.671381,-0.0666 0.926042,0 0.254662,0.0666 0.0463,0.121 -0.463021,0.121 -0.509323,0 -0.717682,-0.0544 -0.463021,-0.121 z m 31.022395,-11.45928 c 0.263389,-0.29104 0.53842,-0.52916 0.611181,-0.52916 0.07276,0 -0.08321,0.23812 -0.346598,0.52916 -0.263389,0.29104 -0.53842,0.52917 -0.611181,0.52917 -0.07276,0 0.08321,-0.23813 0.346598,-0.52917 z m -65.239814,-0.46302 -0.641433,-0.7276 0.727604,0.64143 c 0.680056,0.59952 0.848939,0.81378 0.641433,0.81378 -0.04739,0 -0.374816,-0.32743 -0.727604,-0.72761 z m 18.857021,-30.62552 c 0.0054,-0.43656 0.06469,-0.58312 0.131774,-0.32569 0.06708,0.25743 0.06267,0.61462 -0.0098,0.79375 -0.07247,0.17913 -0.127362,-0.0315 -0.12197,-0.46806 z M 6.1457764,374.42442 c 0.012696,-0.30823 0.07539,-0.37092 0.1598524,-0.15985 0.07643,0.19099 0.067031,0.41919 -0.020888,0.50711 -0.087919,0.0879 -0.1504527,-0.0684 -0.1389644,-0.34726 z m -11.8550746,-3.81441 c 0,-0.65485 0.051598,-0.92274 0.1146622,-0.59531 0.063064,0.32742 0.063064,0.8632 0,1.19062 -0.063064,0.32742 -0.1146622,0.0595 -0.1146622,-0.59531 z M 6.1457764,366.7515 c 0.012696,-0.30822 0.07539,-0.37092 0.1598524,-0.15985 0.07643,0.191 0.067031,0.4192 -0.020888,0.50712 -0.087919,0.0879 -0.1504527,-0.0684 -0.1389644,-0.34727 z m 56.5503326,-6.3764 c 0.190996,-0.0764 0.419199,-0.067 0.507118,0.0209 0.08792,0.0879 -0.06835,0.15045 -0.347265,0.13896 -0.308225,-0.0127 -0.37092,-0.0754 -0.159853,-0.15985 z M 19.618638,327.66472 c 0,-0.0455 0.386953,-0.43249 0.859895,-0.8599 l 0.859896,-0.7771 -0.777105,0.85989 c -0.724371,0.80155 -0.942686,0.98152 -0.942686,0.77711 z m 76.185752,-9.11148 -0.911798,-0.99219 0.992187,0.9118 c 0.545703,0.50149 0.992188,0.94797 0.992188,0.99219 0,0.20204 -0.223895,0.0117 -1.072577,-0.9118 z m -43.70815,-3.68096 c 0.181901,-0.0734 0.479557,-0.0734 0.661458,0 0.181901,0.0734 0.03307,0.13345 -0.330729,0.13345 -0.363802,0 -0.51263,-0.0601 -0.330729,-0.13345 z m 2.518577,-0.008 c 0.257431,-0.0671 0.614618,-0.0627 0.79375,0.01 0.179131,0.0725 -0.03149,0.12736 -0.468056,0.12197 -0.436563,-0.005 -0.583125,-0.0647 -0.325694,-0.13177 z"
         id="path6" /><path
         style="fill:#cbd5e1;fill-opacity:1"
         d="m 50.910651,426.25373 c 0.257431,-0.0671 0.614618,-0.0627 0.79375,0.01 0.179131,0.0725 -0.03149,0.12736 -0.468057,0.12197 -0.436562,-0.005 -0.583124,-0.0647 -0.325693,-0.13178 z m 5.170875,0.003 c 0.190996,-0.0764 0.419199,-0.067 0.507118,0.0209 0.08792,0.0879 -0.06835,0.15045 -0.347265,0.13896 -0.308225,-0.0127 -0.37092,-0.0754 -0.159853,-0.15985 z m 28.360025,-10.23791 c 0,-0.0549 0.208359,-0.2633 0.463021,-0.46302 0.419643,-0.3291 0.429002,-0.31975 0.09989,0.0999 -0.345643,0.44073 -0.562915,0.58089 -0.562915,0.36312 z m -65.121246,-2.74437 c -0.329107,-0.41965 -0.319749,-0.429 0.0999,-0.0999 0.254661,0.19972 0.463021,0.40808 0.463021,0.46302 0,0.21777 -0.217272,0.0776 -0.562916,-0.36312 z m 68.147309,-31.61771 -0.777105,-0.85989 0.859896,0.7771 c 0.472942,0.42741 0.859896,0.81436 0.859896,0.8599 0,0.2044 -0.218316,0.0244 -0.942687,-0.77711 z m -92.9635037,-4.32153 c 0.012696,-0.30822 0.075391,-0.37091 0.1598524,-0.15985 0.07643,0.191 0.067031,0.4192 -0.020888,0.50712 -0.087919,0.0879 -0.1504528,-0.0684 -0.1389644,-0.34727 z m 39.1374427,-8.7092 c 0.341775,-0.3638 0.680939,-0.66145 0.7537,-0.66145 0.07276,0 -0.147342,0.29765 -0.489116,0.66145 -0.341775,0.36381 -0.680939,0.66146 -0.7537,0.66146 -0.07276,0 0.147342,-0.29765 0.489116,-0.66146 z m -39.1374427,-4.78455 c 0.012696,-0.30822 0.075391,-0.37091 0.1598524,-0.15985 0.07643,0.191 0.067031,0.4192 -0.020888,0.50712 -0.087919,0.0879 -0.1504528,-0.0684 -0.1389644,-0.34727 z M 56.4669,360.37249 c 0.257431,-0.0671 0.614619,-0.0627 0.79375,0.01 0.179132,0.0725 -0.03149,0.12736 -0.468056,0.12197 -0.436563,-0.005 -0.583125,-0.0647 -0.325694,-0.13177 z m 5.154339,0.008 c 0.181901,-0.0734 0.479558,-0.0734 0.661459,0 0.181901,0.0734 0.03307,0.13346 -0.330729,0.13346 -0.363802,0 -0.512631,-0.0601 -0.33073,-0.13346 z M 50.910651,314.86416 c 0.257431,-0.0671 0.614618,-0.0627 0.79375,0.01 0.179131,0.0725 -0.03149,0.12736 -0.468057,0.12197 -0.436562,-0.005 -0.583124,-0.0647 -0.325693,-0.13177 z m 4.889755,0.008 c 0.181901,-0.0734 0.479558,-0.0734 0.661459,0 0.181901,0.0734 0.03307,0.13345 -0.330729,0.13345 -0.363802,0 -0.512631,-0.0601 -0.33073,-0.13345 z"
         id="path5" /><path
         style="fill:#cbd5e1;fill-opacity:1"
         d="m 57.404443,438.1626 c 0.190996,-0.0764 0.419199,-0.067 0.507118,0.0209 0.08792,0.0879 -0.06835,0.15045 -0.347266,0.13896 -0.308224,-0.0127 -0.370919,-0.0754 -0.159852,-0.15985 z m -0.529167,-11.90625 c 0.190996,-0.0764 0.419199,-0.067 0.507118,0.0209 0.08792,0.0879 -0.06835,0.15045 -0.347265,0.13896 -0.308225,-0.0127 -0.37092,-0.0754 -0.159853,-0.15985 z m -4.249869,-20.11899 c 0.472942,-0.0587 1.246848,-0.0587 1.719791,0 0.472943,0.0587 0.08599,0.10671 -0.859896,0.10671 -0.945885,0 -1.332838,-0.048 -0.859895,-0.10671 z m -19.003879,-7.41537 -0.641433,-0.72761 0.727604,0.64143 c 0.680056,0.59952 0.848939,0.81378 0.641433,0.81378 -0.04739,0 -0.374816,-0.32742 -0.727604,-0.7276 z m 39.972107,-0.19844 c 0.341774,-0.3638 0.680939,-0.66146 0.753699,-0.66146 0.07276,0 -0.147342,0.29766 -0.489116,0.66146 -0.341774,0.3638 -0.680939,0.66146 -0.753699,0.66146 -0.07276,0 0.147341,-0.29766 0.489116,-0.66146 z m 19.910472,-1.85208 c 0.0029,-0.58209 0.05712,-0.78906 0.120406,-0.45994 0.06329,0.32912 0.06088,0.80537 -0.0053,1.05833 -0.06622,0.25297 -0.118004,-0.0163 -0.115067,-0.59839 z m -40.346449,-2.43609 c 0.329119,-0.0633 0.805369,-0.0609 1.058333,0.005 0.252965,0.0662 -0.01631,0.118 -0.598397,0.11506 -0.582083,-0.003 -0.789054,-0.0571 -0.459936,-0.1204 z m 11.96931,-3.88152 c 0,-0.0549 0.20836,-0.2633 0.463021,-0.46302 0.419644,-0.32911 0.429003,-0.31975 0.0999,0.0999 -0.345644,0.44073 -0.562916,0.58088 -0.562916,0.36312 z M 6.1457764,375.74733 c 0.012696,-0.30822 0.07539,-0.37091 0.1598524,-0.15985 0.07643,0.191 0.067031,0.4192 -0.020888,0.50712 -0.087919,0.0879 -0.1504527,-0.0684 -0.1389644,-0.34727 z m 52.5650466,-3.47196 c 0.327422,-0.0631 0.863203,-0.0631 1.190625,0 0.327422,0.0631 0.05953,0.11466 -0.595313,0.11466 -0.654843,0 -0.922734,-0.0516 -0.595312,-0.11466 z M 6.1457764,365.42858 c 0.012696,-0.30822 0.07539,-0.37091 0.1598524,-0.15985 0.07643,0.191 0.067031,0.4192 -0.020888,0.50712 -0.087919,0.0879 -0.1504527,-0.0684 -0.1389644,-0.34727 z m 52.3074566,-5.06681 c 0.62231,-0.0559 1.57481,-0.0551 2.116667,0.002 0.541856,0.0568 0.03269,0.10258 -1.131473,0.10162 -1.164167,-9.6e-4 -1.607504,-0.0475 -0.985194,-0.10337 z M 53.17111,346.35219 c 0.190996,-0.0764 0.419199,-0.067 0.507118,0.0209 0.08792,0.0879 -0.06835,0.15046 -0.347266,0.13897 -0.308224,-0.0127 -0.370919,-0.0754 -0.159852,-0.15985 z m 1.179124,-0.003 c 0.257431,-0.0671 0.614618,-0.0627 0.79375,0.01 0.179131,0.0725 -0.03149,0.12736 -0.468057,0.12197 -0.436562,-0.005 -0.583124,-0.0647 -0.325693,-0.13178 z m -21.767014,-3.6531 c 0.341774,-0.3638 0.680939,-0.66146 0.7537,-0.66146 0.07276,0 -0.147342,0.29766 -0.489117,0.66146 -0.341774,0.3638 -0.680939,0.66146 -0.753699,0.66146 -0.07276,0 0.147342,-0.29766 0.489116,-0.66146 z m 19.650347,-8.25315 c 0.257431,-0.0671 0.614619,-0.0627 0.79375,0.01 0.179132,0.0725 -0.03149,0.12736 -0.468056,0.12197 -0.436563,-0.005 -0.583125,-0.0647 -0.325694,-0.13178 z m 2.645833,0 c 0.257431,-0.0671 0.614619,-0.0627 0.79375,0.01 0.179132,0.0725 -0.03149,0.12736 -0.468056,0.12197 -0.436563,-0.005 -0.583125,-0.0647 -0.325694,-0.13178 z"
         id="path4" /><path
         style="fill:#cbd5e1;fill-opacity:1"
         d="m 50.381484,438.15998 c 0.257431,-0.0671 0.614618,-0.0627 0.79375,0.01 0.179131,0.0725 -0.03149,0.12736 -0.468056,0.12197 -0.436563,-0.005 -0.583125,-0.0647 -0.325694,-0.13178 z m 6.229209,0.003 c 0.190996,-0.0764 0.419199,-0.067 0.507118,0.0209 0.08792,0.0879 -0.06835,0.15045 -0.347266,0.13896 -0.308224,-0.0127 -0.370919,-0.0754 -0.159852,-0.15985 z m 35.503774,-13.14832 c 0,-0.0549 0.208359,-0.2633 0.463021,-0.46302 0.419644,-0.32911 0.429002,-0.31975 0.0999,0.0999 -0.345644,0.44073 -0.562916,0.58089 -0.562916,0.36313 z m 1.343805,-27.04195 c 0.0127,-0.30822 0.07539,-0.37092 0.159852,-0.15985 0.07643,0.191 0.06703,0.4192 -0.02089,0.50712 -0.08792,0.0879 -0.150453,-0.0683 -0.138964,-0.34727 z m 11.672358,-0.24253 c 0.005,-0.43656 0.0647,-0.58313 0.13177,-0.3257 0.0671,0.25744 0.0627,0.61462 -0.01,0.79375 -0.0725,0.17914 -0.12736,-0.0315 -0.12197,-0.46805 z m 0,-1.85208 c 0.005,-0.43657 0.0647,-0.58313 0.13177,-0.3257 0.0671,0.25743 0.0627,0.61462 -0.01,0.79375 -0.0725,0.17913 -0.12736,-0.0315 -0.12197,-0.46805 z m -11.672358,-0.5516 c 0.0127,-0.30822 0.07539,-0.37092 0.159852,-0.15985 0.07643,0.19099 0.06703,0.4192 -0.02089,0.50712 -0.08792,0.0879 -0.150453,-0.0684 -0.138964,-0.34727 z m -41.345496,-1.08473 c 0.190997,-0.0764 0.4192,-0.067 0.507118,0.0209 0.08792,0.0879 -0.06835,0.15046 -0.347265,0.13897 -0.308225,-0.0127 -0.370919,-0.0754 -0.159853,-0.15985 z m -10.302889,-3.98645 c -0.329107,-0.41964 -0.319749,-0.429 0.09989,-0.0999 0.254662,0.19972 0.463021,0.40808 0.463021,0.46303 0,0.21776 -0.217272,0.0776 -0.562916,-0.36313 z M 57.26065,372.27874 c 0.257431,-0.0671 0.614619,-0.0627 0.79375,0.01 0.179132,0.0725 -0.03149,0.12736 -0.468056,0.12197 -0.436563,-0.005 -0.583125,-0.0647 -0.325694,-0.13177 z m 3.439583,0 c 0.257431,-0.0671 0.614619,-0.0627 0.79375,0.01 0.179132,0.0725 -0.03149,0.12736 -0.468056,0.12197 -0.436562,-0.005 -0.583125,-0.0647 -0.325694,-0.13177 z m -19.91493,-21.11561 c 0.341774,-0.3638 0.680939,-0.66145 0.7537,-0.66145 0.07276,0 -0.147342,0.29765 -0.489117,0.66145 -0.341774,0.36381 -0.680939,0.66146 -0.753699,0.66146 -0.07276,0 0.147342,-0.29765 0.489116,-0.66146 z M 52.09624,346.3577 c 0.181901,-0.0734 0.479557,-0.0734 0.661458,0 0.181901,0.0734 0.03307,0.13345 -0.330729,0.13345 -0.363802,0 -0.51263,-0.06 -0.330729,-0.13345 z m 1.460244,-11.91438 c 0.257431,-0.0671 0.614618,-0.0627 0.79375,0.01 0.179131,0.0725 -0.03149,0.12736 -0.468057,0.12197 -0.436562,-0.005 -0.583124,-0.0647 -0.325693,-0.13178 z m -3.175,-31.48541 c 0.257431,-0.0671 0.614618,-0.0627 0.79375,0.01 0.179131,0.0725 -0.03149,0.12736 -0.468056,0.12197 -0.436563,-0.005 -0.583125,-0.0647 -0.325694,-0.13177 z m 5.948089,0.008 c 0.181901,-0.0734 0.479557,-0.0734 0.661458,0 0.181901,0.0734 0.03307,0.13346 -0.330729,0.13346 -0.363802,0 -0.51263,-0.0601 -0.330729,-0.13346 z"
         id="path3" /><path
         style="fill:#cbd5e1;fill-opacity:1"
         d="m 51.704401,438.15998 c 0.25743,-0.0671 0.614618,-0.0627 0.793749,0.01 0.179132,0.0725 -0.03149,0.12736 -0.468056,0.12197 -0.436562,-0.005 -0.583124,-0.0647 -0.325693,-0.13178 z m 3.434547,9.7e-4 c 0.254662,-0.0666 0.67138,-0.0666 0.926042,0 0.254661,0.0666 0.0463,0.121 -0.463021,0.121 -0.509323,0 -0.717682,-0.0544 -0.463021,-0.121 z m -5.936588,-11.9046 c 0.190996,-0.0764 0.419199,-0.067 0.507118,0.0209 0.08792,0.0879 -0.06835,0.15045 -0.347266,0.13896 -0.308224,-0.0127 -0.370919,-0.0754 -0.159852,-0.15985 z m 8.995833,0 c 0.190996,-0.0764 0.419199,-0.067 0.507118,0.0209 0.08792,0.0879 -0.06835,0.15045 -0.347266,0.13896 -0.308224,-0.0127 -0.370919,-0.0754 -0.159852,-0.15985 z m -44.94958,-2.39895 -0.641433,-0.7276 0.727604,0.64143 c 0.680055,0.59952 0.848939,0.81378 0.641433,0.81378 -0.04739,0 -0.374816,-0.32743 -0.727604,-0.72761 z m 80.585646,-0.59531 c 0.568389,-0.58208 1.092966,-1.05833 1.165726,-1.05833 0.07276,0 -0.332754,0.47625 -0.901143,1.05833 -0.568389,0.58208 -1.092966,1.05833 -1.165727,1.05833 -0.07276,0 0.332754,-0.47625 0.901144,-1.05833 z m -82.43773,-1.25677 -0.641433,-0.72761 0.727604,0.64144 c 0.680056,0.59951 0.848939,0.81377 0.641433,0.81377 -0.04739,0 -0.374815,-0.32742 -0.727604,-0.7276 z M -5.4958897,375.48275 c 0.012696,-0.30822 0.075391,-0.37092 0.1598524,-0.15985 0.07643,0.19099 0.067031,0.4192 -0.020888,0.50712 -0.087919,0.0879 -0.1504528,-0.0684 -0.1389644,-0.34727 z m 101.0299147,-2.42535 -0.641433,-0.7276 0.727604,0.64143 c 0.680056,0.59952 0.848939,0.81378 0.641433,0.81378 -0.04739,0 -0.374816,-0.32742 -0.727604,-0.72761 z M 56.06499,372.28686 c 0.181901,-0.0734 0.479557,-0.0734 0.661458,0 0.181901,0.0734 0.03307,0.13346 -0.330729,0.13346 -0.363802,0 -0.51263,-0.0601 -0.330729,-0.13346 z m 5.837369,-0.006 c 0.190996,-0.0764 0.419199,-0.067 0.507118,0.0209 0.08792,0.0879 -0.06835,0.15045 -0.347265,0.13896 -0.308225,-0.0127 -0.37092,-0.0754 -0.159853,-0.15985 z m -67.3982487,-6.58818 c 0.012696,-0.30823 0.075391,-0.37092 0.1598524,-0.15985 0.07643,0.19099 0.067031,0.41919 -0.020888,0.50711 -0.087919,0.0879 -0.1504528,-0.0684 -0.1389644,-0.34726 z m 58.9315827,-5.05349 c 0.190996,-0.0764 0.419199,-0.067 0.507118,0.0209 0.08792,0.0879 -0.06835,0.15046 -0.347266,0.13897 -0.308224,-0.0127 -0.370919,-0.0754 -0.159852,-0.15986 z m 11.377083,0 c 0.190996,-0.0764 0.419199,-0.067 0.507118,0.0209 0.08792,0.0879 -0.06835,0.15046 -0.347266,0.13897 -0.308224,-0.0127 -0.370919,-0.0754 -0.159852,-0.15986 z m 9.554583,-18.53852 -0.641433,-0.72761 0.727604,0.64143 c 0.680056,0.59952 0.848939,0.81378 0.641434,0.81378 -0.0474,0 -0.374816,-0.32742 -0.727605,-0.7276 z m 12.950859,-15.34584 c -0.329107,-0.41964 -0.319749,-0.429 0.0999,-0.0999 0.254662,0.19972 0.463021,0.40808 0.463021,0.46302 0,0.21776 -0.217272,0.0776 -0.562916,-0.36313 z m 10.054166,-6.35 c -0.329107,-0.41964 -0.319749,-0.429 0.0999,-0.0999 0.440729,0.34564 0.580887,0.56291 0.363126,0.56291 -0.05494,0 -0.263301,-0.20836 -0.463021,-0.46302 z M 10.622805,319.9918 c 0,-0.0455 0.386953,-0.43248 0.859895,-0.85989 l 0.859896,-0.77711 -0.777105,0.8599 c -0.724371,0.80154 -0.942686,0.98151 -0.942686,0.7771 z m 2.778124,-2.82762 c 0.26339,-0.29104 0.538421,-0.52917 0.611181,-0.52917 0.07276,0 -0.08321,0.23813 -0.346597,0.52917 -0.263389,0.29104 -0.538421,0.52916 -0.611181,0.52916 -0.07276,0 0.08321,-0.23812 0.346597,-0.52916 z m 35.801431,-2.29741 c 0.190996,-0.0764 0.419199,-0.067 0.507118,0.0209 0.08792,0.0879 -0.06835,0.15045 -0.347266,0.13896 -0.308224,-0.0127 -0.370919,-0.0754 -0.159852,-0.15985 z m 2.502041,-11.90886 c 0.25743,-0.0671 0.614618,-0.0627 0.793749,0.01 0.179132,0.0725 -0.03149,0.12736 -0.468056,0.12197 -0.436562,-0.005 -0.583124,-0.0647 -0.325693,-0.13177 z m 3.169964,9.7e-4 c 0.254661,-0.0666 0.67138,-0.0666 0.926041,0 0.254662,0.0665 0.0463,0.121 -0.46302,0.121 -0.509323,0 -0.717683,-0.0545 -0.463021,-0.121 z"
         id="path2" /><path
         style="fill:#cbd5e1;fill-opacity:1"
         d="M 49.119678,438.06019 C 20.96494,436.5064 2.2785197,419.79142 -3.5100811,390.98292 -7.7918914,369.67337 -4.915271,345.21125 3.6565019,330.03996 13.134864,313.26409 28.479488,304.26121 49.456807,303.16836 c 19.027182,-0.99125 35.225148,4.41883 46.235456,15.44252 4.395017,4.40036 7.581427,8.92282 10.579427,15.01534 1.6876,3.42954 4.36361,10.56491 4.36361,11.63523 0,0.27969 -1.51506,0.78753 -5.48614,1.83891 l -5.486142,1.4525 -1.003239,-3.06049 C 97.386762,341.6089 94.944344,336.54188 92.77359,333.28095 84.687566,321.134 71.210925,314.78293 53.521793,314.78293 c -10.800946,0 -20.687438,2.7253 -28.036335,7.72848 -2.844513,1.93657 -7.750283,6.93825 -9.798079,9.98965 -6.3452671,9.45501 -9.5606826,22.27168 -9.5606826,38.10895 0,15.83726 3.2154155,28.65393 9.5606826,38.10895 2.187969,3.26026 7.024373,8.13751 10.043897,10.1287 7.686573,5.06884 17.004187,7.58943 28.0551,7.58943 8.803633,0 16.617557,-1.56844 22.471769,-4.51062 4.191351,-2.10647 9.518305,-6.48589 12.214054,-10.04146 1.699604,-2.24171 3.761509,-6.47464 4.423443,-9.081 1.941394,-7.6442 0.131207,-15.42457 -4.820174,-20.71761 -1.553252,-1.66044 -4.602731,-4.06806 -5.15257,-4.06806 -0.143456,0 -0.408736,0.91687 -0.589511,2.03749 -0.814253,5.04752 -3.03871,10.9115 -5.531925,14.58292 -5.352836,7.8824 -13.950299,11.80973 -24.847088,11.35016 -12.048069,-0.50811 -20.945892,-6.90695 -23.625752,-16.99036 -0.735333,-2.76681 -0.79452,-7.61942 -0.125858,-10.31875 0.632941,-2.55513 2.491416,-6.28558 4.131379,-8.29277 3.690451,-4.51684 9.887016,-7.81035 17.314701,-9.20287 3.324444,-0.62325 14.923594,-0.70952 18.870715,-0.14035 1.356603,0.19562 2.534292,0.28793 2.617089,0.20513 0.0828,-0.0828 -0.05456,-0.99439 -0.305238,-2.02577 -2.015632,-8.29306 -6.967646,-12.3701 -15.626316,-12.86527 -6.783555,-0.38794 -12.84117,2.16076 -16.060839,6.75748 -0.399295,0.57007 -0.44362,0.547 -5.209459,-2.71203 l -4.806737,-3.28699 1.547208,-1.94536 c 4.356165,-5.47717 10.444904,-8.97921 17.676739,-10.16707 3.442221,-0.56539 10.060168,-0.37704 13.352252,0.38002 7.803813,1.79459 13.711716,6.2557 17.307423,13.06899 2.121255,4.01944 3.596398,9.24011 4.004018,14.17059 l 0.18188,2.19998 2.28812,1.14917 c 7.477579,3.75546 13.131732,9.26169 16.308791,15.88212 2.51934,5.24986 3.4434,10.00684 3.20713,16.51012 -0.20706,5.69905 -1.26929,9.89946 -3.7482,14.82162 -4.042693,8.02722 -12.091245,15.60355 -21.045202,19.81046 -8.270486,3.88578 -19.445269,5.70574 -31.08854,5.06319 z m 9.789582,-44.2967 c 5.392645,-1.39532 8.910962,-4.96933 10.941757,-11.11494 0.790011,-2.39074 1.625951,-6.62243 1.625951,-8.23088 0,-1.0172 0.0034,-1.01572 -3.546904,-1.54848 -8.665439,-1.30035 -17.960935,-0.53267 -22.713922,1.87585 -1.880905,0.95313 -4.287647,3.32476 -5.138216,5.06326 -0.99774,2.03931 -1.1489,4.9111 -0.367486,6.98165 1.455917,3.8578 5.048485,6.38593 10.470717,7.36836 1.814901,0.32883 6.803479,0.10317 8.728103,-0.39482 z"
         id="path1" /></g></g></svg>
